<svg width="120" height="161" viewBox="0 0 120 161" fill="none" xmlns="http://www.w3.org/2000/svg">
<path fill-rule="evenodd" clip-rule="evenodd" d="M79.2881 24.0289C81.3437 21.5048 82.7349 18.4115 82.5025 14.9454C81.8326 4.95849 68.5433 7.15548 65.9583 12.196C63.3732 17.2365 63.6804 30.0223 67.0213 30.9231C68.3537 31.2824 71.192 30.4023 74.0808 28.5809L72.2676 42.0002H82.9739L79.2881 24.0289Z" fill="#7F4917"/>
<path fill-rule="evenodd" clip-rule="evenodd" d="M61.2152 5.20837C61.4369 4.39313 62.0332 3.69511 62.8369 3.48803C63.0318 3.4378 63.233 3.41751 63.4336 3.42597C63.5055 3.42897 63.5257 3.45067 63.5593 3.39805C63.5842 3.35904 63.5848 3.26373 63.595 3.21788C63.627 3.07531 63.6669 2.93452 63.7162 2.79737C63.8844 2.32961 64.1669 1.91563 64.5076 1.5669C65.1448 0.914485 66.0057 0.464221 66.9002 0.382761C67.3897 0.338201 67.8757 0.421407 68.3386 0.588004C68.5782 0.674244 68.8105 0.781631 69.0368 0.900357C69.1049 0.936092 69.326 1.11112 69.3944 1.09978C69.4699 1.08727 69.6217 0.890949 69.6831 0.841668C70.4421 0.232499 71.3793 -0.0070064 72.3247 0.000155587C73.3918 0.00856222 74.4193 0.0643397 75.3092 0.744824C75.4976 0.888895 75.677 1.04664 75.8478 1.21271C75.9378 1.30015 76.0249 1.39086 76.108 1.48535C76.1582 1.54235 76.207 1.60064 76.254 1.66049C76.3337 1.76209 76.321 1.79546 76.4326 1.72458C76.8609 1.45237 77.3572 1.32506 77.8571 1.38933C78.1539 1.42752 78.4428 1.52074 78.717 1.64345C78.8104 1.68523 79.0265 1.85185 79.126 1.85348C79.2247 1.85507 79.4378 1.70061 79.5395 1.66135C80.0887 1.44924 80.6808 1.39696 81.2581 1.49497C81.8536 1.5961 82.4385 1.84465 82.9431 2.18811C83.1858 2.35333 83.3975 2.53638 83.5676 2.78205C83.641 2.88812 83.7074 3.00032 83.7906 3.09866C83.8393 3.15625 83.9358 3.21533 83.962 3.28821C83.9463 3.24457 84.6132 2.97561 84.6762 2.95842C85.0114 2.86682 85.3528 2.88539 85.6811 2.99842C86.2985 3.21095 86.8294 3.68757 87.2658 4.17624C87.4899 4.42724 87.686 4.70468 87.8525 5.00027C87.9323 5.14186 88.0052 5.2875 88.072 5.43623C88.1044 5.50828 88.1258 5.59841 88.1684 5.66332C88.2233 5.74696 88.2602 5.74855 88.3597 5.78502C88.865 5.97019 89.3256 6.28361 89.6763 6.70712C90.0311 7.1356 90.2613 7.66325 90.3578 8.21891C90.3635 8.25164 90.3669 8.38728 90.3852 8.40499C90.4103 8.42939 90.5119 8.4186 90.5504 8.42332C90.6834 8.43966 90.8156 8.46396 90.946 8.49626C91.1864 8.55578 91.4204 8.64337 91.6417 8.75792C92.5044 9.20448 93.1214 10.0417 93.4234 10.9837C93.7402 11.9723 93.7346 13.1049 93.3559 14.0751C93.2947 14.2318 93.222 14.3839 93.1365 14.5278C93.084 14.6161 93.067 14.6163 93.1011 14.709C93.1391 14.8121 93.2085 14.9123 93.2536 15.013C93.4008 15.3417 93.5037 15.6904 93.5687 16.0465C93.6753 16.6307 93.7282 17.2446 93.623 17.8332C93.5742 18.1065 93.489 18.3737 93.3592 18.6171C93.293 18.7412 93.2156 18.8589 93.1281 18.9678C93.0827 19.0244 93.0345 19.0784 92.984 19.1301C92.9552 19.1596 92.9174 19.1855 92.8928 19.2185C92.833 19.299 92.8204 19.2328 92.8512 19.351C92.8944 19.5162 92.9923 19.6792 93.0522 19.84C93.114 20.0057 93.1698 20.1736 93.2208 20.3432C93.3242 20.6867 93.4117 21.0363 93.4663 21.392C93.5713 22.0748 93.5529 22.8024 93.2441 23.4291C93.1121 23.6972 92.9227 23.9323 92.693 24.1153C92.5806 24.2047 92.4588 24.2819 92.3311 24.3452C92.2654 24.3778 92.1816 24.3918 92.1517 24.4582C92.1195 24.5296 92.1673 24.6714 92.1782 24.7513C92.2731 25.4458 92.3208 26.175 92.1234 26.8556C91.9416 27.4825 91.5414 28.036 91.0218 28.4024C90.0138 29.1133 88.655 29.0732 87.5959 28.5041C87.3198 28.3557 87.0615 28.1716 86.8311 27.9543C86.2444 28.7805 85.0371 28.7544 84.1796 28.519C83.1112 28.2257 82.254 27.4486 81.7601 26.4275C81.0847 27.2876 79.6674 27.0085 79.1991 26.0755C79.0844 25.8472 79.0164 25.5955 78.983 25.3408C78.9654 25.2069 78.9766 25.0718 78.9634 24.939C78.9465 24.7697 78.8384 24.6051 78.7762 24.4414C78.6552 24.1226 78.5801 23.7934 78.5769 23.4496C78.5752 23.2701 78.5969 23.0952 78.6132 22.9171C78.6279 22.7568 78.5854 22.6075 78.5613 22.4493C78.8353 22.4965 79.1691 22.4192 79.4272 22.3361C79.6805 22.2545 79.9178 22.0397 80.0966 21.8436C80.5117 21.388 80.7654 20.7909 80.9388 20.1965C81.3196 18.8921 81.1635 17.327 79.9093 16.6111C79.325 16.2776 77.5746 16.2787 76.8787 16.4435C76.147 16.6168 75.3175 18.3058 75.2767 18.4646C75.2514 18.5628 75.2641 18.6844 75.1778 18.7499C74.9882 18.8938 74.6755 18.644 74.5356 18.5208C74.2943 18.308 74.1221 18.0249 73.973 17.7379C73.6481 17.1127 73.3862 16.4422 73.2012 15.7578C73.0586 15.2301 72.9674 14.686 72.781 14.1717C72.5955 13.6601 72.3031 13.2027 71.8484 12.9129C71.3538 12.5975 70.7868 12.4314 70.2438 12.2333C69.7056 12.0369 69.1767 11.7969 68.7595 11.3802C68.6677 11.2885 68.5786 11.1912 68.5048 11.0833C68.4465 10.9981 68.3889 10.8351 68.3001 10.7811C68.162 10.6971 67.9605 10.9155 67.8411 10.9948C67.2521 11.3862 66.7606 11.932 66.3643 12.5283C65.9701 13.1213 65.6467 13.6919 65.3839 14.3541C65.1889 14.8452 65.0673 15.4742 64.7244 15.8767C64.5714 16.0564 63.4336 16.1651 63.065 16.0082C62.6965 15.8513 62.2834 15.4439 62.1598 15.1886C62.0331 14.9273 62.0029 14.6402 62.057 14.3541C62.0888 14.1858 62.1538 14.0286 62.1893 13.8633C62.2193 13.7244 62.2465 13.5932 62.3111 13.4659C62.4335 13.2249 62.6427 13.0516 62.895 12.9791C62.6325 12.7259 62.4149 12.423 62.2644 12.0843C62.1079 11.7325 61.9754 11.3046 61.9378 10.9185C61.9072 10.6048 61.9544 10.2799 62.1185 10.0103C62.2907 9.72759 62.5957 9.54313 62.8596 9.36676C62.4565 9.03681 62.1115 8.63555 61.8278 8.19129C61.2762 7.32736 60.935 6.23835 61.2152 5.20837Z" fill="#191847"/>
<path fill-rule="evenodd" clip-rule="evenodd" d="M112.862 100.334H61.5613C57.6194 100.334 54.4238 103.677 54.4238 107.8V150.734C54.4238 154.857 57.6194 158.2 61.5613 158.2H112.862C116.804 158.2 120 154.857 120 150.734V107.8C120 103.677 116.804 100.334 112.862 100.334ZM105.725 113.4C106.71 113.4 107.509 114.236 107.509 115.267V143.267C107.509 144.298 106.71 145.134 105.725 145.134H68.6989C67.7134 145.134 66.9145 144.298 66.9145 143.267V115.267C66.9145 114.236 67.7134 113.4 68.6989 113.4H105.725Z" fill="#C5CFD6"/>
<path fill-rule="evenodd" clip-rule="evenodd" d="M22.5237 156.642C28.2395 143.408 32.373 131.884 34.0322 125.804C36.8732 115.394 39.0344 106.234 39.5806 102.813C40.8832 94.6553 29.5604 94.1803 28.0638 98.2345C25.7986 104.371 21.844 124.532 17.0923 154.984L22.5237 156.642ZM88.823 115.11C83.5788 112.941 65.214 106.155 56.3566 104.236C53.8113 103.684 51.3444 103.171 49.025 102.708C42.1311 101.331 38.5594 114.342 45.1991 115.341C61.7346 117.831 85.1764 120.402 87.1825 120.69C89.9942 121.095 92.1188 116.473 88.823 115.11Z" fill="#B28B67"/>
<path fill-rule="evenodd" clip-rule="evenodd" d="M44.7939 99.1279L73.1599 84.0221V80.7336H69.7864C42.3436 88.0489 28.3203 92.737 27.7166 94.7979C27.7102 94.8201 27.7042 94.8423 27.6988 94.8645C27.685 94.8835 27.6714 94.9026 27.6581 94.9218C22.2195 102.746 18.9623 140.946 17.8933 143.807L28.3148 145.433C32.3014 129.969 45.0558 119.195 44.717 100.674C44.8085 100.13 44.8316 99.6153 44.7939 99.1279Z" fill="#1F28CF"/>
<path fill-rule="evenodd" clip-rule="evenodd" d="M70.803 108.099C73.3984 107.556 75.7885 107.071 77.8337 106.695C91.0441 104.271 94.8964 96.8738 92.6187 80.7336H68.2787C64.3027 81.9284 43.6398 90.9932 32.9189 95.8146C25.8233 99.0056 28.0601 110.509 32.0783 113.503C32.1001 113.686 32.1725 113.811 32.3012 113.867C53.9166 123.239 71.0163 118.321 76.7286 119.893L79.3707 111.174L70.803 108.099Z" fill="#2B44FF"/>
<path fill-rule="evenodd" clip-rule="evenodd" d="M87.0301 113.724C88.4463 113.866 89.4517 114.088 90.0462 114.392C90.7692 114.76 91.7655 115.425 93.0351 116.385C92.626 117.262 88.9495 125.148 82.0054 140.042C79.776 139.665 78.8926 138.775 79.3552 137.372C79.8179 135.968 80.191 134.796 80.4746 133.857L80.9153 120.47C80.9238 120.213 81.1303 120.011 81.3765 120.02C81.3807 120.02 81.3849 120.02 81.3891 120.02L83.3576 120.15C84.4761 119.203 85.2141 118.346 85.5715 117.579C85.8619 116.956 86.0225 115.974 86.0532 114.631C86.065 114.115 86.4739 113.708 86.9665 113.72C86.9878 113.721 87.009 113.722 87.0301 113.724Z" fill="#E4E4E4"/>
<path fill-rule="evenodd" clip-rule="evenodd" d="M25.1249 154.188C25.624 155.582 25.8735 156.624 25.8735 157.316C25.8735 158.158 25.7395 159.386 25.4715 161C24.5383 161 16.1514 161 0.310833 161C-0.343002 158.739 0.0344296 157.518 1.44313 157.338C2.85183 157.158 4.02206 156.995 4.95382 156.85L16.6483 151.396C16.8733 151.291 17.137 151.397 17.2373 151.632C17.2391 151.636 17.2407 151.64 17.2423 151.644L17.994 153.552C19.2981 154.188 20.3578 154.506 21.1732 154.506C21.8356 154.506 22.7504 154.227 23.9176 153.667C24.3656 153.452 24.8951 153.658 25.1005 154.126C25.1093 154.147 25.1175 154.167 25.1249 154.188Z" fill="#E4E4E4"/>
<path fill-rule="evenodd" clip-rule="evenodd" d="M47.2664 73.3241L34.6295 86.2204C30.9526 87.8611 27.9399 89.6728 25.5914 91.6555C25.0632 92.3219 24.4883 93.5988 26.9731 93.0274C29.458 92.456 32.0963 91.9719 32.5633 92.8172C33.0303 93.6626 31.6542 94.958 32.5173 96.0644C33.0928 96.8019 35.0279 94.4559 38.3228 89.0261L51.4636 80.9214L47.2664 73.3241ZM103.357 75.1428L94.0348 75.1812C99.7909 94.6196 102.898 104.933 103.357 106.123C104.389 108.799 102.205 112.875 101.271 115.065C104.313 116.489 103.989 111.215 107.827 113.083C111.33 114.788 113.995 117.877 118.042 115.264C118.54 114.943 119.085 113.734 117.767 112.789C114.485 110.434 109.755 106.314 109.116 104.957C108.245 103.108 106.325 93.1696 103.357 75.1428Z" fill="#B28B67"/>
<path fill-rule="evenodd" clip-rule="evenodd" d="M76.8646 34.2218L73.0071 33.5297C66.3658 50.8851 54.7709 66.6548 38.2222 80.8386L50.7272 96.7316C67.2739 76.5357 77.4734 55.6991 76.8646 34.2218Z" fill="#191847"/>
<path fill-rule="evenodd" clip-rule="evenodd" d="M93.6802 84.9336H59.3307C67.2887 64.692 71.2677 47.4969 71.2677 33.3485L81.6292 31.7335C89.7724 45.4341 92.0721 62.3023 93.6802 84.9336Z" fill="#DDE3E9"/>
<path fill-rule="evenodd" clip-rule="evenodd" d="M81.8487 31.7412C81.8474 31.7386 81.846 31.7361 81.8447 31.7335H81.1683C80.359 31.7627 79.1263 31.8152 77.4702 31.8911L74.9665 39.3761C74.7017 48.502 73.155 66.8932 70.3267 94.5497H92.8434C92.7844 96.4598 92.6871 98.3878 92.5514 100.334H109.294C106.789 70.7767 97.6438 47.9101 81.857 31.7335L81.8487 31.7412Z" fill="#2F3676"/>
<path fill-rule="evenodd" clip-rule="evenodd" d="M91.356 70.109C90.7152 82.0159 89.1108 90.2241 86.5428 94.7336H92.8376C93.1132 86.1669 92.6193 77.9587 91.356 70.109Z" fill="black" fill-opacity="0.1"/>
<path fill-rule="evenodd" clip-rule="evenodd" d="M87.8315 80.2669L76.7286 74.8672V80.2669H87.8315Z" fill="white" fill-opacity="0.2"/>
</svg>
